<svg width="18" height="19" viewBox="0 0 18 19" fill="none" xmlns="http://www.w3.org/2000/svg">
<g clip-path="url(#clip0_64_412)">
<path d="M15 14H3V12.9845C2.99776 12.5007 3.15267 12.0292 3.44144 11.641C3.73022 11.2528 4.13723 10.9689 4.60125 10.832C5.41858 10.6288 6.15254 10.1766 6.70156 9.53793C7.25059 8.89928 7.58753 8.10577 7.66575 7.26721H3V6.53671C3.00163 6.08427 3.13904 5.64273 3.39444 5.26926C3.64983 4.89579 4.01146 4.60759 4.4325 4.44196C5.82 3.87871 6.675 3.17671 7.19475 1.08571L7.33575 0.517212H7.9215C14.919 0.517212 15 6.82846 15 6.89221V14ZM16.5 18.5H1.5V17.75C1.5 17.1532 1.73705 16.5809 2.15901 16.159C2.58097 15.737 3.15326 15.5 3.75 15.5H14.25C14.8467 15.5 15.419 15.737 15.841 16.159C16.2629 16.5809 16.5 17.1532 16.5 17.75V18.5Z" fill="#0A0A0A"/>
</g>
<defs>
<clipPath id="clip0_64_412">
<rect width="18" height="18" fill="white" transform="translate(0 0.5)"/>
</clipPath>
</defs>
</svg>
