<svg width="18" height="19" viewBox="0 0 18 19" fill="none" xmlns="http://www.w3.org/2000/svg">
<g id="cloud-download-alt 1" clip-path="url(#clip0_64_445)">
<path id="Vector" d="M13.761 5.9225C12.7778 3.55925 10.4648 2 7.875 2C4.35975 2 1.5 4.85975 1.5 8.375C1.5 8.78825 1.53975 9.19775 1.61775 9.59975C0.6075 10.3738 0 11.5843 0 12.875C0 15.149 1.68225 17 3.75 17H12.375C15.477 17 18 14.477 18 11.375C18 8.77475 16.242 6.54725 13.761 5.9225ZM10.0605 13.5605C9.768 13.853 9.384 13.9993 9 13.9993C8.616 13.9993 8.232 13.853 7.9395 13.5605L5.46975 11.0908L6.53025 10.0303L8.25 11.75V7.25H9.75V11.75L11.4698 10.0303L12.5303 11.0908L10.0605 13.5605Z" fill="#0A0A0A"/>
</g>
<defs>
<clipPath id="clip0_64_445">
<rect width="18" height="18" fill="white" transform="translate(0 0.5)"/>
</clipPath>
</defs>
</svg>
