<svg width="17" height="17" viewBox="0 0 17 17" fill="none" xmlns="http://www.w3.org/2000/svg">
<g id="dark_mode_black">
<path id="Vector" opacity="0.75" d="M6.59952 3.28059C6.45476 3.7953 6.38238 4.33413 6.38238 4.88101C6.38238 8.16228 9.05243 10.8323 12.3337 10.8323C12.8806 10.8323 13.4194 10.76 13.9341 10.6152C13.0977 12.674 11.0711 14.1297 8.71466 14.1297C5.61032 14.1297 3.08503 11.6044 3.08503 8.50006C3.08503 6.14366 4.54069 4.11699 6.59952 3.28059ZM8.71466 1.26196C4.71762 1.26196 1.47656 4.50302 1.47656 8.50006C1.47656 12.4971 4.71762 15.7382 8.71466 15.7382C12.7117 15.7382 15.9528 12.4971 15.9528 8.50006C15.9528 8.13011 15.9206 7.76016 15.8723 7.4063C15.0842 8.5081 13.7974 9.22387 12.3337 9.22387C9.93709 9.22387 7.99085 7.27762 7.99085 4.88101C7.99085 3.42535 8.70661 2.13053 9.80841 1.34239C9.45455 1.29413 9.0846 1.26196 8.71466 1.26196Z" fill="white" fill-opacity="0.8"/>
</g>
</svg>
