<svg width="16" height="16" viewBox="0 0 16 16" fill="none" xmlns="http://www.w3.org/2000/svg">
<g id="Instagram">
<g id="Group">
<path id="Vector" fill-rule="evenodd" clip-rule="evenodd" d="M1.86616 3.34483C1.3335 4.2715 1.3335 5.5135 1.3335 8.00016C1.3335 10.4862 1.3335 11.7288 1.86616 12.6555C2.21947 13.2706 2.72974 13.7809 3.34483 14.1342C4.2715 14.6668 5.5135 14.6668 8.00016 14.6668C10.4862 14.6668 11.7288 14.6668 12.6555 14.1342C13.2706 13.7809 13.7809 13.2706 14.1342 12.6555C14.6668 11.7288 14.6668 10.4868 14.6668 8.00016C14.6668 5.51416 14.6668 4.2715 14.1342 3.34483C13.7809 2.72974 13.2706 2.21947 12.6555 1.86616C11.7288 1.3335 10.4868 1.3335 8.00016 1.3335C5.51416 1.3335 4.2715 1.3335 3.34483 1.86616C2.72974 2.21947 2.21947 2.72974 1.86616 3.34483ZM10.7948 13.2935C10.1302 13.3535 9.26683 13.3548 8.00016 13.3548C6.7335 13.3548 5.87016 13.3535 5.2055 13.2935C4.55883 13.2355 4.22883 13.1295 3.9975 12.9968C3.58374 12.7592 3.2405 12.4159 3.00283 12.0022C2.8695 11.7708 2.76416 11.4408 2.70616 10.7942C2.64616 10.1295 2.64483 9.26616 2.64483 7.9995C2.64483 6.73283 2.64616 5.8695 2.70616 5.20483C2.76416 4.55816 2.87016 4.22816 3.00283 3.99683C3.2405 3.58308 3.58374 3.23983 3.9975 3.00216C4.22883 2.86883 4.55883 2.7635 5.2055 2.7055C5.87016 2.6455 6.7335 2.64416 8.00016 2.64416C9.26683 2.64416 10.1302 2.6455 10.7948 2.7055C11.4415 2.7635 11.7715 2.8695 12.0022 3.00216C12.4162 3.24016 12.7595 3.5835 12.9975 3.99683C13.1302 4.22816 13.2362 4.55816 13.2942 5.20483C13.3542 5.8695 13.3555 6.73283 13.3555 7.9995C13.3555 9.26616 13.3542 10.1295 13.2942 10.7942C13.2362 11.4408 13.1302 11.7708 12.9975 12.0015C12.7599 12.4155 12.4166 12.759 12.0028 12.9968C11.7715 13.1295 11.4415 13.2355 10.7948 13.2935ZM10.5788 4.5235C10.5788 4.28577 10.6733 4.05779 10.8414 3.88969C11.0095 3.7216 11.2374 3.62716 11.4752 3.62716C11.7129 3.62716 11.9409 3.7216 12.109 3.88969C12.2771 4.05779 12.3715 4.28577 12.3715 4.5235C12.3715 4.76113 12.2771 4.98903 12.1091 5.15706C11.941 5.3251 11.7131 5.4195 11.4755 5.4195C11.2379 5.4195 11.01 5.3251 10.8419 5.15706C10.6739 4.98903 10.5795 4.76113 10.5795 4.5235H10.5788ZM8.00016 4.5235C7.54369 4.5235 7.09168 4.61341 6.66995 4.78809C6.24823 4.96278 5.86504 5.21882 5.54226 5.54159C5.21948 5.86437 4.96344 6.24756 4.78876 6.66929C4.61407 7.09102 4.52416 7.54302 4.52416 7.9995C4.52416 8.45597 4.61407 8.90798 4.78876 9.3297C4.96344 9.75143 5.21948 10.1346 5.54226 10.4574C5.86504 10.7802 6.24823 11.0362 6.66995 11.2109C7.09168 11.3856 7.54369 11.4755 8.00016 11.4755C8.92214 11.4755 9.80636 11.1092 10.4583 10.4573C11.1102 9.80536 11.4765 8.92114 11.4765 7.99916C11.4765 7.07718 11.1102 6.19296 10.4583 5.54102C9.80636 4.88908 8.92214 4.5235 8.00016 4.5235ZM5.92416 8.00016C5.92416 7.72754 5.97786 7.45758 6.08219 7.20571C6.18652 6.95384 6.33943 6.72498 6.53221 6.53221C6.72498 6.33943 6.95384 6.18652 7.20571 6.08219C7.45758 5.97786 7.72754 5.92416 8.00016 5.92416C8.27279 5.92416 8.54274 5.97786 8.79461 6.08219C9.04648 6.18652 9.27534 6.33943 9.46812 6.53221C9.66089 6.72498 9.81381 6.95384 9.91814 7.20571C10.0225 7.45758 10.0762 7.72754 10.0762 8.00016C10.0762 8.55075 9.85744 9.07879 9.46812 9.46812C9.07879 9.85744 8.55075 10.0762 8.00016 10.0762C7.44957 10.0762 6.92153 9.85744 6.53221 9.46812C6.14288 9.07879 5.92416 8.55075 5.92416 8.00016Z" fill="white"/>
</g>
</g>
</svg>
