<svg width="13" height="14" viewBox="0 0 13 14" fill="none" xmlns="http://www.w3.org/2000/svg">
<g id="key 1" clip-path="url(#clip0_64_429)">
<path id="Vector" d="M8.66078 7.37921V5.91671C8.66078 5.77305 8.71785 5.63528 8.81943 5.5337C8.92101 5.43211 9.05879 5.37505 9.20244 5.37505H9.74411C9.88777 5.37505 10.0255 5.31798 10.1271 5.2164C10.2287 5.11481 10.2858 4.97704 10.2858 4.83338V4.29171C10.2858 4.14805 10.3428 4.01028 10.4444 3.9087C10.546 3.80711 10.6838 3.75005 10.8274 3.75005H12.2818C12.3875 3.74953 12.4908 3.71861 12.5793 3.66098C12.6679 3.60335 12.738 3.52144 12.7812 3.42505C12.9642 3.02214 13.0346 2.5772 12.9849 2.1375C12.923 1.6797 12.6957 1.26039 12.3458 0.958724C11.9959 0.657055 11.5477 0.493896 11.0858 0.500046C10.4341 0.500087 9.809 0.759033 9.34815 1.21992L5.06465 5.50234C4.37419 5.32297 3.64826 5.33194 2.96244 5.52834C2.01889 5.79515 1.20368 6.39423 0.667241 7.21504C0.130801 8.03584 -0.0906657 9.02296 0.0437075 9.99426C0.178081 10.9656 0.659225 11.8555 1.39836 12.4998C2.13749 13.1442 3.08473 13.4994 4.06528 13.5C4.20712 13.4999 4.34886 13.4925 4.48994 13.4778C5.29711 13.39 6.05968 13.0631 6.67998 12.5392C7.30028 12.0153 7.75008 11.3182 7.97178 10.5371C8.1688 9.85156 8.17759 9.1256 7.99724 8.43546L8.34932 8.08338C8.53655 7.89518 8.6475 7.64435 8.66078 7.37921ZM2.97924 11.3334C2.81854 11.3334 2.66145 11.2857 2.52784 11.1964C2.39422 11.1072 2.29008 10.9803 2.22858 10.8318C2.16709 10.6833 2.151 10.52 2.18235 10.3624C2.2137 10.2048 2.29108 10.06 2.40471 9.94635C2.51834 9.83272 2.66312 9.75534 2.82073 9.72399C2.97833 9.69264 3.1417 9.70873 3.29017 9.77023C3.43863 9.83172 3.56553 9.93586 3.6548 10.0695C3.74408 10.2031 3.79174 10.3602 3.79174 10.5209C3.79174 10.7364 3.70613 10.943 3.55376 11.0954C3.40139 11.2478 3.19472 11.3334 2.97924 11.3334Z" fill="white"/>
</g>
<defs>
<clipPath id="clip0_64_429">
<rect width="13" height="13" fill="white" transform="translate(0 0.5)"/>
</clipPath>
</defs>
</svg>
