<svg width="20" height="21" viewBox="0 0 20 21" fill="none" xmlns="http://www.w3.org/2000/svg">
<g id="light_mode_black" clip-path="url(#clip0_64_299)">
<path id="Vector" d="M10.2145 8.05725C11.558 8.05725 12.6573 9.15654 12.6573 10.5001C12.6573 11.8437 11.558 12.943 10.2145 12.943C8.8709 12.943 7.77161 11.8437 7.77161 10.5001C7.77161 9.15654 8.8709 8.05725 10.2145 8.05725ZM10.2145 6.42868C7.96704 6.42868 6.14304 8.25268 6.14304 10.5001C6.14304 12.7475 7.96704 14.5715 10.2145 14.5715C12.4619 14.5715 14.2859 12.7475 14.2859 10.5001C14.2859 8.25268 12.4619 6.42868 10.2145 6.42868ZM2.07161 11.3144H3.70018C4.14804 11.3144 4.51447 10.948 4.51447 10.5001C4.51447 10.0523 4.14804 9.68583 3.70018 9.68583H2.07161C1.62375 9.68583 1.25732 10.0523 1.25732 10.5001C1.25732 10.948 1.62375 11.3144 2.07161 11.3144ZM16.7288 11.3144L18.3573 11.3144C18.8052 11.3144 19.1716 10.948 19.1716 10.5001C19.1716 10.0523 18.8052 9.68583 18.3573 9.68583L16.7288 9.68583C16.2809 9.68583 15.9145 10.0523 15.9145 10.5001C15.9145 10.948 16.2809 11.3144 16.7288 11.3144ZM9.40018 2.35725V3.98583C9.40018 4.43368 9.76661 4.80011 10.2145 4.80011C10.6623 4.80011 11.0288 4.43368 11.0288 3.98583V2.35725C11.0288 1.9094 10.6623 1.54297 10.2145 1.54297C9.76661 1.54297 9.40018 1.9094 9.40018 2.35725ZM9.40018 17.0144L9.40018 18.643C9.40018 19.0908 9.76661 19.4573 10.2145 19.4573C10.6623 19.4573 11.0288 19.0908 11.0288 18.643L11.0288 17.0144C11.0288 16.5665 10.6623 16.2001 10.2145 16.2001C9.76661 16.2001 9.40018 16.5665 9.40018 17.0144ZM5.32061 4.45811C5.00304 4.14054 4.4819 4.14054 4.17247 4.45811C3.8549 4.77568 3.8549 5.29683 4.17247 5.60625L5.03561 6.4694C5.35318 6.78697 5.87432 6.78697 6.18375 6.4694C6.49318 6.15183 6.50132 5.63068 6.18375 5.32125L5.32061 4.45811ZM15.3933 14.5308C15.0758 14.2133 14.5546 14.2133 14.2452 14.5308C13.9276 14.8484 13.9276 15.3695 14.2452 15.679L15.1083 16.5421C15.4259 16.8597 15.947 16.8597 16.2565 16.5421C16.574 16.2245 16.574 15.7034 16.2565 15.394L15.3933 14.5308ZM16.2565 5.60625C16.574 5.28868 16.574 4.76754 16.2565 4.45811C15.9389 4.14054 15.4178 4.14054 15.1083 4.45811L14.2452 5.32125C13.9276 5.63883 13.9276 6.15997 14.2452 6.4694C14.5628 6.77883 15.0839 6.78697 15.3933 6.4694L16.2565 5.60625ZM6.18375 15.679C6.50132 15.3614 6.50132 14.8403 6.18375 14.5308C5.86618 14.2133 5.34504 14.2133 5.03561 14.5308L4.17247 15.394C3.8549 15.7115 3.8549 16.2327 4.17247 16.5421C4.49004 16.8515 5.01118 16.8597 5.32061 16.5421L6.18375 15.679Z" fill="#555555"/>
</g>
<defs>
<clipPath id="clip0_64_299">
<rect width="19.5429" height="19.5429" fill="white" transform="translate(0.442871 0.728638)"/>
</clipPath>
</defs>
</svg>
