<svg width="16" height="16" viewBox="0 0 16 16" fill="none" xmlns="http://www.w3.org/2000/svg">
<g id="LinkedIn">
<g id="Group">
<path id="Vector" fill-rule="evenodd" clip-rule="evenodd" d="M1.3335 6.07416C1.3335 4.41483 1.3335 3.58483 1.65616 2.9515C1.94026 2.39372 2.39372 1.94026 2.9515 1.65616C3.58483 1.3335 4.41483 1.3335 6.0735 1.3335H9.9255C11.5848 1.3335 12.4148 1.3335 13.0482 1.65616C13.6059 1.94026 14.0594 2.39372 14.3435 2.9515C14.6668 3.58483 14.6668 4.41483 14.6668 6.0735V9.9255C14.6668 11.5848 14.6668 12.4148 14.3442 13.0482C14.0601 13.6059 13.6066 14.0594 13.0488 14.3435C12.4155 14.6662 11.5855 14.6662 9.92616 14.6662H6.0735C4.41416 14.6662 3.58416 14.6662 2.95083 14.3435C2.39305 14.0594 1.93959 13.6059 1.6555 13.0482C1.3335 12.4155 1.3335 11.5855 1.3335 9.92683V6.0735V6.07416ZM4.8335 5.81083C4.23216 5.81083 3.81683 5.3695 3.81683 4.83083C3.81683 4.2795 4.21083 3.81683 4.8235 3.81683C5.43683 3.81683 5.79683 4.2795 5.80816 4.83016C5.80816 5.37016 5.37283 5.81083 4.8455 5.81083H4.8335ZM6.75816 6.5675C6.7815 7.09416 6.75816 12.1835 6.75816 12.1835H8.50283V9.0475C8.50283 8.8795 8.54883 8.71216 8.59616 8.59216C8.7255 8.25683 8.99083 7.9675 9.4855 7.9675C10.1335 7.9675 10.4488 8.42483 10.4488 9.17883V12.1835H12.1835V8.9635C12.1835 7.02616 11.3668 6.43616 10.1882 6.43616C9.23816 6.43616 8.67616 6.98016 8.4335 7.36283V6.5675H6.75816ZM3.9395 12.1835H5.67016V6.5675H3.9395V12.1835Z" fill="white"/>
</g>
</g>
</svg>
