<svg width="13" height="14" viewBox="0 0 13 14" fill="none" xmlns="http://www.w3.org/2000/svg">
<g id="mobile-notch 1" clip-path="url(#clip0_64_433)">
<path id="Vector" d="M8.14921 0.50004C8.13459 0.499498 4.86509 0.499498 4.85046 0.50004C3.36846 0.51304 2.1665 1.72312 2.1665 3.20783V10.7912C2.1665 12.2845 3.38146 13.4995 4.87484 13.4995H8.12484C9.61821 13.4995 10.8332 12.2845 10.8332 10.7912V3.20837C10.8332 1.72312 9.63121 0.513582 8.14921 0.50004ZM9.74984 10.7912C9.74984 11.6871 9.02075 12.4162 8.12484 12.4162H4.87484C3.97892 12.4162 3.24984 11.6871 3.24984 10.7912V3.20837C3.24984 2.42133 3.81209 1.76375 4.5558 1.61479L4.93171 2.36717C5.02325 2.55079 5.21121 2.66671 5.4165 2.66671H7.58317C7.78846 2.66671 7.97588 2.55079 8.06796 2.36717L8.44388 1.61479C9.18759 1.76321 9.74984 2.42133 9.74984 3.20837V10.7912ZM7.0415 11.3328H5.95817C5.65917 11.3328 5.4165 11.0902 5.4165 10.7912C5.4165 10.4922 5.65917 10.2495 5.95817 10.2495H7.0415C7.3405 10.2495 7.58317 10.4922 7.58317 10.7912C7.58317 11.0902 7.3405 11.3328 7.0415 11.3328Z" fill="white"/>
</g>
<defs>
<clipPath id="clip0_64_433">
<rect width="13" height="13" fill="white" transform="translate(0 0.5)"/>
</clipPath>
</defs>
</svg>
