<svg width="16" height="16" viewBox="0 0 16 16" fill="none" xmlns="http://www.w3.org/2000/svg">
<g id="Tiktok">
<g id="Group">
<path id="Vector" d="M12.1768 4.28C12.0901 4.23472 12.0058 4.1851 11.9241 4.13133C11.6861 3.97186 11.468 3.78428 11.2748 3.57267C10.8944 3.14072 10.641 2.61183 10.5428 2.04467H10.5455C10.4901 1.714 10.5128 1.5 10.5161 1.5H8.31015V10.1333C8.31015 10.2493 8.31015 10.364 8.30548 10.4767L8.30348 10.5193C8.30348 10.5253 8.30348 10.532 8.30215 10.538V10.5433C8.27896 10.8527 8.1808 11.1517 8.01615 11.4147C7.85215 11.6767 7.62614 11.8947 7.35948 12.048C7.08148 12.208 6.76614 12.292 6.44614 12.2913C5.41881 12.2913 4.58615 11.4433 4.58615 10.396C4.58615 9.34867 5.41881 8.5 6.44614 8.5C6.64148 8.5 6.83481 8.53067 7.01948 8.592L7.02214 6.31867C6.46057 6.2453 5.88984 6.2905 5.34681 6.45133C4.80241 6.61268 4.29766 6.88584 3.86481 7.25333C3.48481 7.588 3.16481 7.98667 2.92015 8.43267C2.82681 8.59467 2.47548 9.248 2.43348 10.3073C2.40615 10.9093 2.58481 11.532 2.66948 11.79V11.7953C2.72281 11.9467 2.93081 12.4647 3.26881 12.9007C3.54081 13.2507 3.86281 13.558 4.22415 13.8133V13.808L4.22948 13.8133C5.29748 14.5473 6.48148 14.4993 6.48148 14.4993C6.68681 14.4907 7.37348 14.4993 8.15348 14.1253C8.67144 13.8776 9.13315 13.5264 9.51015 13.0933C9.82528 12.7234 10.0755 12.3028 10.2501 11.8493C10.4501 11.318 10.5168 10.6813 10.5168 10.4267V5.84667C10.5435 5.86267 10.8995 6.10133 10.8995 6.10133C10.8995 6.10133 11.4128 6.43467 12.2141 6.65133C12.7888 6.80533 13.5635 6.838 13.5635 6.838V4.622C13.2921 4.65133 12.7415 4.56467 12.1768 4.28Z" fill="white"/>
</g>
</g>
</svg>
