<svg width="16" height="16" viewBox="0 0 16 16" fill="none" xmlns="http://www.w3.org/2000/svg">
<g id="Twitter">
<g id="Group">
<path id="Vector" d="M14.6668 3.85719C14.1691 4.08141 13.6406 4.22973 13.0988 4.29719C13.6693 3.95377 14.0951 3.41439 14.2968 2.77985C13.7611 3.09953 13.175 3.32587 12.5635 3.44919C12.0602 2.90119 11.3528 2.58252 10.5502 2.58252C9.0515 2.58252 7.82816 3.80585 7.82816 5.31652C7.82816 5.53319 7.8535 5.74319 7.89816 5.94119C6.81152 5.88613 5.74854 5.60352 4.77802 5.11166C3.8075 4.6198 2.95108 3.92964 2.26416 3.08585C2.02112 3.50146 1.89339 3.9744 1.89416 4.45585C1.89416 5.40585 2.37216 6.24719 3.1115 6.72519C2.6595 6.72519 2.23816 6.59785 1.86883 6.40652V6.42585C1.86841 7.05748 2.08654 7.6698 2.4862 8.1589C2.88587 8.648 3.44245 8.98375 4.0615 9.10919C3.66041 9.21871 3.23939 9.23377 2.8315 9.15319C3.0045 9.69662 3.34347 10.1722 3.80075 10.513C4.25803 10.8538 4.81062 11.0427 5.38083 11.0532C4.41419 11.818 3.21612 12.2314 1.9835 12.2252C1.76683 12.2252 1.55016 12.2125 1.3335 12.1872C2.58411 12.9915 4.03992 13.4185 5.52683 13.4172C10.5495 13.4172 13.3095 9.24919 13.3095 5.63519C13.3095 5.51385 13.3095 5.39919 13.3028 5.27852C13.8399 4.89131 14.3021 4.40971 14.6668 3.85719Z" fill="white"/>
</g>
</g>
</svg>
