<svg width="18" height="19" viewBox="0 0 18 19" fill="none" xmlns="http://www.w3.org/2000/svg">
<g id="user (4) 1" clip-path="url(#clip0_64_407)">
<path id="Vector" d="M12.0322 11H5.96775C4.98211 11.0012 4.03717 11.3933 3.34022 12.0902C2.64326 12.7872 2.25119 13.7321 2.25 14.7178V18.5H15.75V14.7178C15.7488 13.7321 15.3567 12.7872 14.6598 12.0902C13.9628 11.3933 13.0179 11.0012 12.0322 11Z" fill="#0A0A0A"/>
<path id="Vector_2" d="M9 9.5C11.4853 9.5 13.5 7.48528 13.5 5C13.5 2.51472 11.4853 0.5 9 0.5C6.51472 0.5 4.5 2.51472 4.5 5C4.5 7.48528 6.51472 9.5 9 9.5Z" fill="#0A0A0A"/>
</g>
<defs>
<clipPath id="clip0_64_407">
<rect width="18" height="18" fill="white" transform="translate(0 0.5)"/>
</clipPath>
</defs>
</svg>
