<svg width="18" height="15" viewBox="0 0 18 15" fill="none" xmlns="http://www.w3.org/2000/svg">
<path d="M13.761 3.9225C12.7778 1.55925 10.4648 0 7.875 0C4.35975 0 1.5 2.85975 1.5 6.375C1.5 6.78825 1.53975 7.19775 1.61775 7.59975C0.6075 8.37375 0 9.58425 0 10.875C0 13.149 1.68225 15 3.75 15H12.375C15.477 15 18 12.477 18 9.375C18 6.77475 16.242 4.54725 13.761 3.9225ZM10.0605 11.5605C9.768 11.853 9.384 11.9993 9 11.9993C8.616 11.9993 8.232 11.853 7.9395 11.5605L5.46975 9.09075L6.53025 8.03025L8.25 9.75V5.25H9.75V9.75L11.4698 8.03025L12.5303 9.09075L10.0605 11.5605Z" fill="#0A0A0A"/>
</svg>
